<?xml version="1.0" standalone="no"?>
<!DOCTYPE svg PUBLIC "-//W3C//DTD SVG 20010904//EN"
 "http://www.w3.org/TR/2001/REC-SVG-20010904/DTD/svg10.dtd">
<svg version="1.0" xmlns="http://www.w3.org/2000/svg"
 width="150.000000pt" height="150.000000pt" viewBox="0 0 150.000000 150.000000"
 preserveAspectRatio="xMidYMid meet">
<metadata>
Created by potrace 1.14, written by Peter Selinger 2001-2017
</metadata>
<g transform="translate(0.000000,150.000000) scale(0.100000,-0.100000)"
fill="#000000" stroke="none">
<path d="M0 750 l0 -750 750 0 750 0 0 750 0 750 -750 0 -750 0 0 -750z m799
578 c63 -30 155 -128 196 -212 19 -38 35 -77 35 -86 0 -13 12 -21 38 -27 31
-7 38 -13 40 -38 5 -43 17 -51 46 -31 38 24 49 20 95 -30 41 -43 42 -46 27
-69 -15 -23 -15 -24 15 -23 36 1 44 -9 60 -76 11 -48 11 -50 -14 -70 l-25 -21
25 -19 c22 -16 24 -23 19 -60 -10 -59 -32 -89 -62 -83 -20 4 -24 1 -18 -12 17
-40 14 -57 -16 -94 -31 -36 -71 -49 -85 -27 -11 18 -25 11 -25 -12 0 -31 -11
-45 -43 -57 -51 -20 -85 -14 -101 16 l-14 28 -12 -27 c-15 -32 -39 -39 -88
-25 -51 15 -62 25 -62 59 0 23 -3 28 -12 21 -32 -25 -49 -22 -88 13 -43 39
-50 66 -24 102 15 22 15 27 -6 70 -22 47 -32 51 -90 43 -3 -1 -50 -91 -105
-200 -70 -142 -105 -201 -119 -205 -26 -7 -167 40 -184 61 -27 36 -13 84 83
285 l95 200 -29 36 c-31 40 -61 95 -61 111 0 6 33 -22 72 -63 100 -100 165
-131 273 -130 59 0 92 6 127 21 108 49 178 138 199 253 26 146 -52 287 -211
380 -62 36 -31 35 49 -2z m-30 -73 c99 -54 146 -133 146 -245 0 -90 -23 -146
-81 -204 -60 -59 -115 -81 -204 -80 -117 0 -196 50 -249 156 -71 142 -13 311
132 383 45 22 62 25 127 22 60 -3 87 -9 129 -32z"/>
<path d="M1036 926 c-18 -154 -117 -277 -261 -322 l-53 -17 21 -43 c20 -41 20
-44 3 -69 -16 -25 -17 -29 -2 -43 14 -14 18 -14 49 3 46 24 75 9 79 -43 2 -30
7 -38 25 -40 17 -3 26 3 32 21 18 46 81 43 96 -4 5 -14 14 -19 28 -17 17 2 23
12 28 42 9 54 34 67 84 44 21 -9 29 -9 42 4 14 15 14 18 -1 39 -32 46 -10 83
48 84 45 0 49 38 7 60 -43 22 -44 68 -1 90 34 17 34 19 20 46 -7 12 -21 19
-39 19 -38 0 -54 34 -36 77 19 45 -15 74 -45 38 -28 -33 -80 -2 -80 47 0 17
-7 27 -19 31 -16 4 -19 -3 -25 -47z m100 -241 c10 -53 -3 -101 -38 -141 -38
-43 -68 -56 -125 -55 -47 0 -88 18 -117 50 -20 22 -14 42 8 26 57 -42 71 -48
111 -48 111 0 172 124 106 214 -12 16 -19 35 -15 41 11 18 62 -46 70 -87z"/>
<path d="M344 573 c-46 -98 -63 -142 -56 -153 15 -26 74 -60 102 -60 25 0 32
11 94 141 37 78 65 143 64 144 -6 6 -128 65 -133 65 -3 0 -35 -62 -71 -137z"/>
<path d="M237 345 c-10 -24 -17 -52 -15 -62 2 -10 24 -29 50 -43 56 -29 71
-24 105 35 25 45 24 50 -14 58 -16 3 -45 17 -66 31 -21 14 -39 26 -40 26 -1 0
-10 -20 -20 -45z"/>
<path d="M535 1237 c-103 -49 -150 -122 -149 -232 0 -83 21 -132 83 -188 157
-142 412 -29 414 183 1 72 -17 124 -61 172 -75 83 -193 110 -287 65z m163 -50
c16 -19 -9 -245 -29 -258 -20 -13 -65 -11 -76 4 -6 6 -16 63 -23 125 -9 88 -9
116 0 127 16 19 113 20 128 2z m-23 -342 l0 -40 -40 0 c-36 0 -40 2 -43 28 -6
47 4 59 45 55 37 -3 38 -4 38 -43z"/>
</g>
</svg>
